<?xml version="1.0" ?><!DOCTYPE svg  PUBLIC '-//W3C//DTD SVG 1.1//EN'  'http://www.w3.org/Graphics/SVG/1.1/DTD/svg11.dtd'><svg enable-background="new 0 0 512 512" height="512px" version="1.1" viewBox="0 0 512 512" width="512px" xml:space="preserve" xmlns="http://www.w3.org/2000/svg" xmlns:xlink="http://www.w3.org/1999/xlink"><g id="Layer_2_1_"><g id="Layer_2_2_"><circle cx="364.935" cy="200.368" fill="#E8F3F9" r="100.717"/><circle cx="344.936" cy="180.369" fill="none" r="100.717" stroke="#F28649" stroke-linecap="round" stroke-miterlimit="10" stroke-width="10"/><line fill="none" stroke="#F28649" stroke-linecap="round" stroke-miterlimit="10" stroke-width="10" x1="344.936" x2="344.936" y1="59.099" y2="25.034"/><line fill="none" stroke="#F28649" stroke-linecap="round" stroke-miterlimit="10" stroke-width="10" x1="344.936" x2="344.936" y1="335.703" y2="301.639"/><line fill="none" stroke="#F28649" stroke-linecap="round" stroke-miterlimit="10" stroke-width="10" x1="466.205" x2="500.27" y1="180.369" y2="180.369"/><line fill="none" stroke="#F28649" stroke-linecap="round" stroke-miterlimit="10" stroke-width="10" x1="430.686" x2="454.773" y1="94.618" y2="70.53"/><line fill="none" stroke="#F28649" stroke-linecap="round" stroke-miterlimit="10" stroke-width="10" x1="235.097" x2="259.186" y1="290.207" y2="266.119"/><line fill="none" stroke="#F28649" stroke-linecap="round" stroke-miterlimit="10" stroke-width="10" x1="430.686" x2="454.773" y1="266.119" y2="290.207"/><line fill="none" stroke="#F28649" stroke-linecap="round" stroke-miterlimit="10" stroke-width="10" x1="235.097" x2="259.186" y1="70.53" y2="94.618"/></g></g><g id="Layer_1"><g id="Layer_1_2_"/><g id="Layer_2_3_"/><g id="Layer_3_2_"><path d="M336.986,268.933c-2.098,0-4.172,0.111-6.213,0.322c-0.543-49.181-40.574-88.886-89.883-88.886    c-37.972,0-70.445,23.544-83.619,56.83c-5.917-1.465-12.104-2.247-18.474-2.247c-42.341,0-76.664,34.323-76.664,76.664    c0,42.114,33.96,76.293,75.99,76.655v0.009h198.864c32.955,0,59.674-26.718,59.674-59.675    C396.658,295.65,369.941,268.933,336.986,268.933z" fill="#E8F3F9"/><path d="M320.646,252.594    c-2.098,0-4.17,0.111-6.213,0.322c-0.541-49.182-40.572-88.887-89.882-88.887c-37.973,0-70.446,23.544-83.619,56.83    c-5.917-1.465-12.104-2.247-18.475-2.247c-42.34,0-76.664,34.324-76.664,76.665c0,42.114,33.96,76.293,75.99,76.655v0.009h198.865    c32.955,0,59.672-26.718,59.672-59.675C380.32,279.312,353.602,252.594,320.646,252.594z" fill="none" stroke="#65BAE0" stroke-linejoin="round" stroke-miterlimit="10" stroke-width="10"/><path d="M27.987,275.099c0.548-7.81,2.183-15.319,4.758-22.376c0-0.107-0.006-0.214-0.006-0.323    c0-37.817,30.766-68.583,68.583-68.583c5.583,0,11.145,0.676,16.53,2.011c1.988,0.492,4.028-0.562,4.781-2.462    c12.33-31.156,41.95-51.287,75.461-51.287c13.419,0,26.321,3.246,37.841,9.34c8.448,1.434,16.52,3.965,24.067,7.441    c-16.715-16.108-38.611-24.951-61.909-24.951c-18.258,0-35.813,5.473-50.771,15.829c-13.644,9.446-24.284,22.324-30.937,37.394    c-4.946-0.985-9.998-1.483-15.064-1.483c-42.321,0-76.752,34.432-76.752,76.752c0,7.7,1.139,15.303,3.384,22.601    C27.965,275.033,27.977,275.066,27.987,275.099z" fill="#65BAE0"/></g><line fill="none" stroke="#65BAE0" stroke-linecap="round" stroke-linejoin="round" stroke-miterlimit="10" stroke-width="10" x1="142.286" x2="129.5" y1="405" y2="436"/><line fill="none" stroke="#65BAE0" stroke-linecap="round" stroke-linejoin="round" stroke-miterlimit="10" stroke-width="10" x1="228.208" x2="204.65" y1="407.705" y2="467.205"/><line fill="none" stroke="#65BAE0" stroke-linecap="round" stroke-linejoin="round" stroke-miterlimit="10" stroke-width="10" x1="310.617" x2="297.832" y1="405" y2="436"/></g></svg>