<svg id="Layer_1" data-name="Layer 1" xmlns="http://www.w3.org/2000/svg" width="64" height="64" viewBox="0 0 64 64"><defs><style>.cls-1{fill:#1d1d1b;}</style></defs><title>cloud</title><path class="cls-1" d="M58.4,35c-1.67-5-8-4.71-8-4.71A14.87,14.87,0,0,0,50.48,27c-.17-1.54-1.38-6.46-6.33-7.87a10.15,10.15,0,0,0-8.63,1.5s-2.54-4.29-7-5.42-7.87-.33-12,1.54-6.91,4.88-7.75,9.46,1.5,6.92,1.5,6.92S6.6,34,5.48,36.63a8.86,8.86,0,0,0,0,7.5c1.08,2.29,5.19,4.45,7.87,5,2.42.45,8.09.08,14.59,0s13-.42,19.33-.21,8.71-1,10.46-4.09S60.06,40,58.4,35Zm-1.21,4.67s-2.29-4.75-2.67-4.75-.75.5-.54.66,3.12,5.25,3,5.71-.67,1.71-.79,1.5S54,37.46,53.56,37.46,53,37.92,53,38s2.75,5.8,2.62,6-.83,1.54-1,1.25-2.54-6.16-3-6.16-1,.41-.87.58,3.37,6.08,3,6.21-1.71.71-1.79.46S49.69,41,49.27,41a.67.67,0,0,0-.62.63c0,.12,2.58,4.87,2.33,4.87s-1.25.29-1.46,0-2.25-4.91-2.54-5-.83.34-.83.34,2.58,4.91,2.16,5-1.21.16-1.37,0-2.17-4.67-2.42-4.71-.71.08-.71.33,2,4.33,1.79,4.33-1.41.38-1.45,0-1.3-4.29-1.67-4.37-.92,0-.79.37a31.62,31.62,0,0,1,1.21,4c-.17,0-.59.13-.8,0S40.52,43.09,40.31,43s-.79.3-.71.55,1.46,3.16,1.34,3.16-1.34.25-1.54.09S38.19,44,38,43.92s-1,0-.88.46,1.13,2.54.84,2.54a10.56,10.56,0,0,1-2,0c0-.13-.58-2-.83-2s-1,0-.88.29.63,2,.33,2-11.29,0-14.75.21-4.16.21-6-.13A13.4,13.4,0,0,1,7.9,44.21C6.23,42.42,6.56,38.42,7.52,37a7,7,0,0,1,4.13-2.58c1,0,1.83,0,1.83,0s-.08-.75-.42-.88A6.68,6.68,0,0,1,10.56,28c.09-3.46,2-6.58,6.09-8.87s5.91-2.59,10.62-2.17a6.63,6.63,0,0,1,6.21,4.87,2.31,2.31,0,0,0,.62,1.55c.42.45,1.25.7,1.42.5s0-2.3,4.38-2.88,7,1.54,8.08,4.63A6.9,6.9,0,0,1,48,31a1.61,1.61,0,0,0,.21,1.42c.29.38.87.75,1.25.46a4,4,0,0,1,3.66-.42,5.93,5.93,0,0,1,3.8,3.59A8.39,8.39,0,0,1,57.19,39.63ZM10.35,36.88c-1.58.46-1.95,3.41-1.75,4.46s.84,1,1.3.87.08-.67.12-1.92a5.85,5.85,0,0,1,1.25-2.79C11.6,36.92,10.92,36.71,10.35,36.88Zm6.17-14.71A5.74,5.74,0,0,0,14,26.79c0,.55.83.46,1.25.25s.54-1.25.71-1.87a5.25,5.25,0,0,1,3-3c2-.84,1.54-1,1.25-1.46S18.94,20.34,16.52,22.17ZM40.65,23c-1.13.33-.63,1-.63,1s.21.46,1.58.84a2.76,2.76,0,0,1,1.84,1.45.77.77,0,0,0,1.08.09c.38-.25.63-.46-.37-1.84A4.36,4.36,0,0,0,40.65,23Z"/></svg>