<?xml version="1.0" ?><!DOCTYPE svg  PUBLIC '-//W3C//DTD SVG 1.1//EN'  'http://www.w3.org/Graphics/SVG/1.1/DTD/svg11.dtd'><svg enable-background="new 0 0 512 512" height="512px" version="1.1" viewBox="0 0 512 512" width="512px" xml:space="preserve" xmlns="http://www.w3.org/2000/svg" xmlns:xlink="http://www.w3.org/1999/xlink"><g id="Layer_2"><g id="Layer_3"><path d="M356.714,215.093c-52.189-51.477-56.044-132.565-11.581-188.424    c-18.445,6.928-35.742,17.716-50.604,32.374c-56.362,55.591-56.362,145.722,0,201.313c56.363,55.59,147.745,55.59,204.107,0    c4.172-4.115,8.027-8.424,11.582-12.888C458.704,266.815,398.216,256.028,356.714,215.093z" fill="#E8F3F9"/><path d="    M344.379,202.721c-52.188-51.477-56.045-132.564-11.581-188.424c-18.445,6.929-35.742,17.717-50.603,32.375    c-56.363,55.59-56.363,145.723,0,201.313c56.363,55.589,147.745,55.591,204.108,0c4.172-4.115,8.026-8.422,11.579-12.889    C446.37,254.443,385.882,243.656,344.379,202.721z" fill="none" stroke="#9B64E2" stroke-linecap="round" stroke-linejoin="round" stroke-miterlimit="10" stroke-width="10"/><g><g><path d="M423.525,66.225c-0.87-3.08-5.08-3.493-6.122,0c-0.959,3.224-2.104,5.76-5.403,9.067      c-3.302,3.31-9.33,6.103-10.958,6.103c-3.12,0-2.552,6.061,0,6.139c2.554,0.078,6.807,0.91,9.953,4.065      c3.147,3.157,5.868,8.58,6.402,10.623c0.534,2.044,4.781,2.442,5.592-0.541c0.812-2.986,3.621-7.019,6.674-10.083      c3.055-3.062,7.421-5.157,9.009-5.042c1.589,0.115,3.775-5.103,0-6.139c-3.774-1.036-7.076-1.577-9.41-3.917      C426.93,74.16,424.585,69.976,423.525,66.225z" fill="#E8F3F9"/></g><g><path d="M475.248,105.529c-0.598-2.111-3.484-2.394-4.198,0c-0.658,2.209-1.441,3.949-3.704,6.217      c-2.264,2.27-6.396,4.185-7.514,4.185c-2.14,0-1.75,4.156,0,4.209c1.749,0.054,4.667,0.624,6.824,2.788      c2.158,2.165,4.022,5.883,4.389,7.283c0.367,1.402,3.277,1.675,3.835-0.371c0.555-2.047,2.481-4.812,4.576-6.913      s5.089-3.537,6.178-3.458c1.09,0.078,2.587-3.498,0-4.209c-2.588-0.71-4.853-1.081-6.453-2.686      C477.582,110.97,475.976,108.101,475.248,105.529z" fill="#E8F3F9"/></g></g><g><g><path d="M408.069,68.493c1.313,2.391,2.875,4.568,4.499,6.197c1.367,1.371,2.872,2.338,4.424,3.068      c-1.517,1.023-2.909,2.165-4.023,3.283c-1.698,1.704-3.585,3.937-5.163,6.35c-1.338-2.254-2.983-4.547-4.783-6.352      c-1.429-1.432-2.974-2.518-4.513-3.341c2.135-1.308,4.11-2.806,5.516-4.215C405.763,71.74,407.061,70.104,408.069,68.493       M408.072,57.571c-1.251,0-2.498,0.776-3.002,2.467c-0.961,3.224-2.104,5.76-5.403,9.068c-3.304,3.31-9.328,6.103-10.959,6.103      c-3.12,0-2.552,6.061,0,6.139c2.554,0.078,6.807,0.91,9.955,4.064c3.146,3.158,5.866,8.58,6.399,10.623      c0.266,1.008,1.43,1.616,2.641,1.616c1.246,0,2.54-0.643,2.953-2.156c0.811-2.986,3.621-7.018,6.673-10.083      c2.973-2.982,7.195-5.046,8.879-5.046c0.046,0,0.089,0.001,0.13,0.005c0.018,0.001,0.035,0.002,0.053,0.002      c1.584,0,3.682-5.116-0.053-6.142c-3.775-1.036-7.077-1.577-9.41-3.917c-2.333-2.339-4.677-6.524-5.738-10.276      C410.742,58.451,409.405,57.571,408.072,57.571L408.072,57.571z" fill="#9B64E2"/></g><g><path d="M460.645,108.566c0.588,0.817,1.209,1.562,1.841,2.196c0.329,0.33,0.67,0.631,1.015,0.907      c-0.261,0.233-0.509,0.467-0.739,0.699c-0.423,0.422-1.205,1.244-2.089,2.334c-0.614-0.831-1.28-1.625-1.987-2.335      c-0.334-0.334-0.676-0.646-1.024-0.934c0.637-0.498,1.217-1.003,1.71-1.498C459.835,109.471,460.258,109.014,460.645,108.566       M460.775,97.652c-0.858,0-1.713,0.531-2.06,1.69c-0.658,2.209-1.441,3.949-3.704,6.217c-2.265,2.27-6.396,4.185-7.514,4.185      c-2.14,0-1.75,4.156,0,4.21c1.75,0.053,4.668,0.624,6.824,2.787c2.158,2.165,4.023,5.883,4.389,7.284      c0.18,0.691,0.98,1.107,1.812,1.107c0.853,0,1.739-0.44,2.024-1.479c0.555-2.047,2.48-4.812,4.575-6.913      c2.041-2.045,4.935-3.461,6.089-3.461c0.03,0,0.06,0.001,0.09,0.003c0.012,0.001,0.021,0.002,0.034,0.002      c1.088,0,2.524-3.508-0.034-4.211c-2.588-0.71-4.854-1.081-6.454-2.687c-1.6-1.604-3.205-4.473-3.933-7.045      C462.605,98.254,461.689,97.652,460.775,97.652L460.775,97.652z" fill="#9B64E2"/></g></g></g></g><g id="Layer_1"><g id="Layer_1_2_"/><g id="Layer_2_3_"/><g id="Layer_3_2_"><path d="M336.986,268.933c-2.098,0-4.172,0.111-6.213,0.322c-0.543-49.181-40.574-88.886-89.883-88.886    c-37.972,0-70.445,23.544-83.619,56.83c-5.917-1.465-12.104-2.247-18.474-2.247c-42.341,0-76.664,34.323-76.664,76.664    c0,42.114,33.96,76.293,75.99,76.655v0.009h198.864c32.955,0,59.674-26.718,59.674-59.675    C396.658,295.65,369.941,268.933,336.986,268.933z" fill="#E8F3F9"/><path d="M320.646,252.594    c-2.098,0-4.17,0.111-6.213,0.322c-0.541-49.182-40.572-88.887-89.882-88.887c-37.973,0-70.446,23.544-83.619,56.83    c-5.917-1.465-12.104-2.247-18.475-2.247c-42.34,0-76.664,34.324-76.664,76.665c0,42.114,33.96,76.293,75.99,76.655v0.009h198.865    c32.955,0,59.672-26.718,59.672-59.675C380.32,279.312,353.602,252.594,320.646,252.594z" fill="none" stroke="#65BAE0" stroke-linejoin="round" stroke-miterlimit="10" stroke-width="10"/><path d="M27.987,275.099c0.548-7.81,2.183-15.319,4.758-22.376c0-0.107-0.006-0.214-0.006-0.323    c0-37.817,30.766-68.583,68.583-68.583c5.583,0,11.145,0.676,16.53,2.011c1.988,0.492,4.028-0.562,4.781-2.462    c12.33-31.156,41.95-51.287,75.461-51.287c13.419,0,26.321,3.246,37.841,9.34c8.448,1.434,16.52,3.965,24.067,7.441    c-16.715-16.108-38.611-24.951-61.909-24.951c-18.258,0-35.813,5.473-50.771,15.829c-13.644,9.446-24.284,22.324-30.937,37.394    c-4.946-0.985-9.998-1.483-15.064-1.483c-42.321,0-76.752,34.432-76.752,76.752c0,7.7,1.139,15.303,3.384,22.601    C27.965,275.033,27.977,275.066,27.987,275.099z" fill="#65BAE0"/></g><line fill="none" stroke="#65BAE0" stroke-linecap="round" stroke-linejoin="round" stroke-miterlimit="10" stroke-width="10" x1="142.286" x2="129.5" y1="405" y2="436"/><line fill="none" stroke="#65BAE0" stroke-linecap="round" stroke-linejoin="round" stroke-miterlimit="10" stroke-width="10" x1="228.208" x2="204.65" y1="407.705" y2="467.205"/><line fill="none" stroke="#65BAE0" stroke-linecap="round" stroke-linejoin="round" stroke-miterlimit="10" stroke-width="10" x1="310.617" x2="297.832" y1="405" y2="436"/></g></svg>